<?xml version="1.0" encoding="UTF-8"?><svg id="a" xmlns="http://www.w3.org/2000/svg" width="512" height="512" viewBox="0 0 512 512"><g><path d="m510.19,226.73c4.18,22.5.92,45.36-7.68,66.46-17.05,41.82-50.09,77.93-86.87,103.57-18.72,13.05-39.73,23.09-61.87,28.77-23.87,6.12-48.78,7.64-73.33,7.24-25.65-.42-51.27-2.57-76.85-4.23l-77.82-5.04c-23.9-1.55-48.73-3.08-69.42-16.47-17.3-11.2-30.39-28-39.18-46.48C-.18,324.09-4.43,281.47,4.64,242.17c4.33-18.73,12.05-37.14,23.25-52.81,13.03-18.22,29.89-31.84,49.25-42.95,21.65-12.42,44.2-23.44,67.01-33.57,23.4-10.39,47.31-20.07,72.28-26,83.79-19.92,175.46-.48,242.74,53.46.83.5,1.61,1.11,2.29,1.85.7.58,1.28,1.25,1.76,1.97,6.92,7.66,13.55,15.55,19.72,23.83,12.91,17.35,23.27,37.36,27.25,58.78h0Zm-23.5,35.32c7.46-39.93-16.75-74.88-42.29-102.84-7.05-5.79-14.47-11.08-22.17-15.97-32.62-20.73-70.39-33.91-108.72-38.2-41.41-4.63-82.18.38-121.42,14.23-21.87,7.72-43.09,17.33-63.9,27.54-20.07,9.84-41.48,19.74-59.14,33.64-27.02,21.27-41.47,54.78-44.3,87.83-2.96,34.53,3.93,72.73,25.63,100.84,11.69,15.14,27.09,24.03,46.14,27.48,10.29,1.86,20.83,2.23,31.25,2.9,12.63.82,25.27,1.64,37.91,2.46,24.52,1.59,49.03,3.2,73.56,4.77,23.03,1.48,46.15,2.78,69.22,1.39,21.25-1.28,42.61-5.21,62.24-13.67,18.13-7.81,34.91-18.92,49.79-31.84,30.06-26.08,58.7-60.43,66.2-100.56h0Z" style="fill:#c19e4a;"/><path d="m444.4,159.21c25.54,27.96,49.75,62.91,42.29,102.84-7.5,40.13-36.14,74.48-66.2,100.56-14.88,12.92-31.66,24.03-49.79,31.84-19.63,8.46-40.99,12.39-62.24,13.67-23.07,1.39-46.19.09-69.22-1.39-24.53-1.57-49.04-3.18-73.56-4.77-12.64-.82-25.28-1.64-37.91-2.46-10.42-.67-20.96-1.04-31.25-2.9-19.05-3.45-34.45-12.34-46.14-27.48-21.7-28.11-28.59-66.31-25.63-100.84,2.83-33.05,17.28-66.56,44.3-87.83,17.66-13.9,39.07-23.8,59.14-33.64,20.81-10.21,42.03-19.82,63.9-27.54,39.24-13.85,80.01-18.86,121.42-14.23,38.33,4.29,76.1,17.47,108.72,38.2,7.7,4.89,15.12,10.18,22.17,15.97h0Z" style="fill:#e5c15f;"/></g><path d="m243.14,128.72c-44.72,15.32-88.64,32.98-131.52,52.89-18.24,8.47-36.93,17.85-49.38,33.64-12.45,15.8-16.75,39.84-4.59,55.86,7.72,10.17,20.48,15.32,33.07,17.44,8.16,1.38,16.64,1.66,24.63-.49,21.49-5.78,34.34-26.98,50.76-42,6.12-5.6,12.9-10.43,19.67-15.23,14.48-10.24,29.26-20.49,45.98-26.41,19.54-6.92,40.69-7.55,60.94-11.98,20.25-4.43,41.14-14.04,50.67-32.45,1.64-3.17,2.93-6.71,2.51-10.26-.66-5.58-5.33-9.82-10.16-12.7-15.15-9.02-33.7-9.55-51.33-9.83-16.13-.26-32.44-.5-48.2,2.99" style="fill:#eed16a;"/><path d="m94.65,337.52c-3.9-5.52-7.94-12.2-15.67-11.79-8.65.44-9.56,12.66-2.58,14.71-.54,1.05-.9,2.21-1.02,3.44-.62,6.26,1.88,12.88,7.65,15.9,5.52,2.89,12.92.71,16.17-4.56,4.02-6.49-.87-12.51-4.54-17.7h0Z" style="fill:#c79a47;"/><path d="m445.94,204.28c-.69-3.43-3.06-5.08-5.69-5.36.48-2.76,1.19-5.46,2.01-8.13,2.84-9.25-11.64-13.2-14.46-3.99-2.64,8.61-6.59,23.42.06,31.12,3.44,3.97,9.3,4.95,13.71,1.88,5.28-3.69,5.55-9.75,4.38-15.53h-.02Z" style="fill:#c79a47;"/><path d="m113.52,193.44c-3.27-1.92-8.52-.97-10.26,2.68l-8.87,18.63c-1.69,3.55-1.12,8.22,2.69,10.26,6.46,3.46,13.14,1.47,17.35-4.3,2.15-2.94.88-7.35-1.75-9.58,1.19-2.47,2.35-4.95,3.54-7.42,1.74-3.66,1-8.1-2.69-10.26h-.02Z" style="fill:#c79a47;"/><path d="m225.76,148.6c-9.55-4.07-19.7-3.29-28.98,1.04-8.75,4.08-1.14,17.01,7.58,12.95,3.54-1.65,7.41-2.12,11.24-1.47-1.46,2.61-2.04,5.57-1.67,8.61.88,7.29,9.99,9.03,13.6,5.05l1.21.79c4.08,2.67,9.79,0,11.01-4.49,2.83-10.39-4.98-18.66-14-22.5h0Z" style="fill:#c79a47;"/><path d="m298.35,151.72c1.37,9.56,16.18,7.16,14.81-2.41-.28-1.9.18-3.83,1.14-5.49,4.56,4.23,14.07,1.22,12.63-6.52-.32-1.7-.33-2.97-.07-4.67.71-4.83-4-9-8.66-8.21-12.76,2.17-21.67,14.51-19.83,27.29h-.01Z" style="fill:#c79a47;"/><path d="m77.57,277.71c-9.65,0-9.67,15,0,15s9.67-15,0-15Z" style="fill:#c79a47;"/><path d="m190.93,206.85c-9.64,0-9.67,15,0,15s9.67-15,0-15Z" style="fill:#c79a47;"/><path d="m378.07,169.36c-9.64,0-9.68,15,0,15s9.68-15,0-15Z" style="fill:#c79a47;"/><path d="m214.21,361.65c22.69,17.82,52.91,19.18,80.63,16.01,26.99-3.08,56.51-9.87,75.73-30.59,6.35-6.85,7.29-18.56,0-25.26-6.91-6.34-18.47-7.32-25.26,0-1.83,1.97-3.75,3.76-5.78,5.51,1.34-1.15,1.03-.73-.2.08-1.11.74-2.21,1.47-3.36,2.16-2.07,1.25-4.21,2.34-6.36,3.42-4.51,2.27,1.79-.58-.92.46-1.26.48-2.52.98-3.79,1.43-4.97,1.76-10.06,3.15-15.19,4.33-2.77.63-5.56,1.2-8.36,1.7-1.56.28-3.12.53-4.68.77-3.43.53,4.18-.42-1.83.24-11.38,1.26-22.9,1.6-34.32.65-1.35-.11-2.69-.24-4.04-.4,2.63.32.6.06-.87-.2-2.38-.43-4.75-.97-7.07-1.64-1.28-.37-2.52-.9-3.8-1.24-2.52-.67,3.26,1.78-.86-.37-.94-.49-1.88-.97-2.79-1.5-.31-.18-4.47-3.08-1.62-.84-7.33-5.76-18.2-7.69-25.26,0-5.9,6.43-7.85,19.09,0,25.26h0Z" style="fill:#724c2e;"/><path d="m98.85,286.99c8.94,4.19,16.55,10.73,25.57,14.92,9.86,4.58,20.01,8.18,30.7,10.23-3.56-8.75-7.12-17.49-10.67-26.24-2.26,3.79-4.67,7.48-7.31,11.02,2.07-2.79-1.97,2.36-2.38,2.83-1.44,1.67-2.92,3.3-4.45,4.89-3.05,3.18-6.28,6.19-9.67,9.02-.85.71-1.7,1.4-2.57,2.08,1.43-1.11,1.32-1.04-.34.2-1.82,1.24-3.62,2.52-5.47,3.72-7.82,5.09-11.81,16.06-6.41,24.44,5.03,7.81,16.06,11.86,24.44,6.41,18.39-11.97,33.76-27.7,45-46.59,5.53-9.29.74-24.04-10.67-26.24-4.56-.88-9.06-1.97-13.48-3.38-2.21-.71-4.38-1.51-6.55-2.32-1.97-.79-2.15-.86-.55-.21-1.06-.47-2.11-.96-3.15-1.46-8.41-4.07-15.59-10.24-24-14.17s-19.65-2.65-24.44,6.41c-4.18,7.91-2.62,20.2,6.41,24.44h0Z" style="fill:#724c2e;"/><path d="m424.47,203.06c-8.86,7.21-17.66,14.49-26.38,21.87-9.7,8.2-27.04,18.85-22.12,34.05,4.25,13.14,19.33,17.29,30.67,22.71s21.59,10.32,32.39,15.48c8.41,4.02,19.68,2.6,24.44-6.41,4.21-7.97,2.59-20.13-6.41-24.44-9-4.3-18-8.6-26.99-12.9-4.2-2.01-8.4-4.01-12.6-6.02-2.4-1.15-4.8-2.29-7.2-3.44-1.2-.57-2.4-1.15-3.6-1.72-3.27-1.82-2.63-.83,1.94,2.97.6,4.59,1.2,9.17,1.8,13.76-3.46,4.77-3.86,5.87-1.2,3.3.99-.85,1.98-1.71,2.97-2.56,1.48-1.28,2.97-2.55,4.46-3.82,3.72-3.18,7.46-6.34,11.21-9.49,7.25-6.09,14.55-12.11,21.89-18.08s6.61-19.19,0-25.26c-7.73-7.1-17.49-6.31-25.26,0h0Z" style="fill:#724c2e;"/></svg>